# xmcd
#
# Track frame offsets:
#	150
#	12495
#	30998
#	41837
#	52890
#	63913
#	75543
#
# Disc length: 1159 seconds
#
# Revision: 0
# Processed by: cddbd v1.5.2PL0 Copyright (c) Steve Scherf et al.
# Submitted via: audiograbber 1.83.01
#
DISCID=4b048507
DTITLE=Various Artist - The Best Of Country Volume 1
DYEAR=1900
DGENRE=Country
TTITLE0=Johnny Cash - I Walk The Line
TTITLE1=Don Williams - I Believe In You
TTITLE2=George Jones - Tender Years
TTITLE3=Conway Twitty - Hello Darlin'
TTITLE4=Roger Miller - King Of The Road
TTITLE5=Freddy Fender - Before The Next Teardrop Falls
TTITLE6=Red Savine And Webb Pierce - Why Baby Why
EXTD=
EXTT0=
EXTT1=
EXTT2=
EXTT3=
EXTT4=
EXTT5=
EXTT6=
PLAYORDER=
